# xmcd
#
# Track frame offsets: 
#        150
#        12327
#        29092
#        52097
#        73820
#        95612
#        136210
#        159582
#        188570
#        204307
#        224430
#        235382
#
# Disc length: 3314 seconds
#
# Revision: 0
# Processed by: cddbd v1.5.2PL0 Copyright (c) Steve Scherf et al.
# Submitted via: ExactAudioCopy v0.95b4
#
DISCID=b10cf00c
DTITLE=Tony Williamson - Sessions at McBane Mill
DYEAR=2003
DGENRE=Bluegrass
TTITLE0=Crazy Creek
TTITLE1=Blue Heels
TTITLE2=First Waltz of Spring
TTITLE3=Wild Julio
TTITLE4=A Postcard From the Island
TTITLE5=June Apple
TTITLE6=Spanish Eyes
TTITLE7=Mother's Day
TTITLE8=Now is the Time
TTITLE9=Sunrise on the Water
TTITLE10=Mr PC
TTITLE11=Postcard Reprise
EXTD=
EXTT0=
EXTT1=
EXTT2=
EXTT3=
EXTT4=
EXTT5=
EXTT6=
EXTT7=
EXTT8=
EXTT9=
EXTT10=
EXTT11=
PLAYORDER=
